<svg xmlns="http://www.w3.org/2000/svg" xmlns:xlink="http://www.w3.org/1999/xlink" viewBox="0 0 216.09 262.31"><defs><linearGradient id="linear-gradient" x1="155.55" y1="-40.53" x2="99.4" y2="157.17" gradientUnits="userSpaceOnUse"><stop offset="0" stop-color="#f37e80"/><stop offset="0.57" stop-color="#f59ba3"/><stop offset="1" stop-color="#f6c3d9"/></linearGradient></defs><title>bassBlob_1</title><g id="Layer_2" data-name="Layer 2"><g id="Layer_1-2" data-name="Layer 1"><g id="floaters"><path d="M182.78,0s-30.27,5.12-45.19,41.57S79,104.08,58.5,116.44c0,0-14.71,13.43-50.31,18.12,0,0-15.14,3.62-4.26,29.2s29,62.25,69.28,87,81,4.05,92.52-8.74,33.68-75.89,33.68-75.89,13.86-44.77,14.71-55.43-.43-24.3-3.41-31.34,3.62-20.25,3.62-20.25a22.9,22.9,0,0,0-2.56-22.17c-5.32-7.48-8.8-16.91-10.5-22.24A22.11,22.11,0,0,0,194,3.94C191,1.63,187.17-.33,182.78,0Z" style="fill:url(#linear-gradient)"/></g></g></g></svg>