<svg xmlns="http://www.w3.org/2000/svg" xmlns:xlink="http://www.w3.org/1999/xlink" viewBox="0 0 109.64 133.09"><defs><linearGradient id="linear-gradient" x1="78.93" y1="-20.57" x2="50.43" y2="79.74" gradientUnits="userSpaceOnUse"><stop offset="0" stop-color="#f37e80"/><stop offset="0.57" stop-color="#f59ba3"/><stop offset="1" stop-color="#f6c3d9"/></linearGradient></defs><title>bassBlob</title><g id="Layer_2" data-name="Layer 2"><g id="Layer_1-2" data-name="Layer 1"><g id="floaters"><path d="M92.74,0S77.38,2.62,69.81,21.11s-29.74,31.69-40.13,38c0,0-7.46,6.81-25.53,9.19,0,0-7.68,1.84-2.16,14.82s14.71,31.58,35.15,44.13,41.1,2.06,46.94-4.43,17.09-38.51,17.09-38.51,7-22.71,7.46-28.12-.22-12.33-1.73-15.9S108.75,30,108.75,30a11.62,11.62,0,0,0-1.3-11.25,43.07,43.07,0,0,1-5.33-11.29A11.22,11.22,0,0,0,98.42,2,8.16,8.16,0,0,0,92.74,0Z" style="fill:url(#linear-gradient)"/></g></g></g></svg>