<svg xmlns="http://www.w3.org/2000/svg" viewBox="0 0 66.52 26.06"><defs><style>.cls-1{fill:none;stroke:#6d6e71;stroke-linecap:round;stroke-miterlimit:10;stroke-width:1.28px;}</style></defs><title>hairLine</title><g id="Layer_2" data-name="Layer 2"><g id="Layer_1-2" data-name="Layer 1"><g id="floaters"><path class="cls-1" d="M.64,25.41,4.43,19.1a5.84,5.84,0,0,1,8-2l.37.22a5.84,5.84,0,0,0,8-2.09l.41-.71a5.84,5.84,0,0,1,7.83-2.21l.31.17A5.84,5.84,0,0,0,37.3,10.1l.38-.71A5.84,5.84,0,0,1,45.61,7h0a5.84,5.84,0,0,0,8-2.53l.31-.62a5.84,5.84,0,0,1,7.9-2.58l4.07,2.09"/></g></g></g></svg>