<svg xmlns="http://www.w3.org/2000/svg" xmlns:xlink="http://www.w3.org/1999/xlink" viewBox="0 0 56.11 52.96"><defs><linearGradient id="linear-gradient" x1="37.69" y1="25.08" x2="56.11" y2="25.08" gradientUnits="userSpaceOnUse"><stop offset="0" stop-color="#54ab47"/><stop offset="1" stop-color="#f0825a"/></linearGradient><linearGradient id="linear-gradient-2" x1="11.07" y1="13.83" x2="31.41" y2="40.95" gradientUnits="userSpaceOnUse"><stop offset="0" stop-color="#ef3c5a"/><stop offset="1" stop-color="#f0825a"/></linearGradient></defs><title>morakas</title><g id="Layer_2" data-name="Layer 2"><g id="Layer_1-2" data-name="Layer 1"><g id="floaters"><path d="M49,5.53A35.34,35.34,0,0,0,37.85,27.09a25.62,25.62,0,0,0,1.33,11.42c.13.39.26.79.37,1.19.38,1.37,1.68,5.24,4.23,5.75,3.11.62,10-5.48,11.58-10.83,1-3.19.82-8.72.55-12.67a18.75,18.75,0,0,0-2.05-7.36c-1.09-2.09-2.27-5-2-7.47C52.37,2.76,49,5.53,49,5.53Z" style="fill:url(#linear-gradient)"/><path d="M9.53.34A12,12,0,0,0,.6,10l0,.23C-.68,18,.07,24.27,3.5,29.13c2.43,2.5,6.59,3,10.25,4.39s8.33,18.15,12.65,19.32A3.45,3.45,0,0,0,30,51.55a7.73,7.73,0,0,0,.89-8.88c-2.66-4.84-7-14.08-5.12-19.79,1.51-4.55.92-13.82-1.38-16.7a16,16,0,0,0-7-5.08A17.91,17.91,0,0,0,12.63,0a9.6,9.6,0,0,0-3,.31Z" style="fill:url(#linear-gradient-2)"/></g></g></g></svg>